<svg width="600" height="360" viewBox="0 0 600 360" fill="none" xmlns="http://www.w3.org/2000/svg">
<rect width="600" height="360" fill="#252525"/>
<path d="M262.119 126.197L265.154 126.949C265.3 126.803 265.455 126.667 265.619 126.539C265.783 126.402 265.97 126.284 266.18 126.184C266.389 126.083 266.631 126.001 266.904 125.938C267.178 125.874 267.501 125.842 267.875 125.842C268.431 125.842 268.914 125.928 269.324 126.102C269.734 126.275 270.076 126.521 270.35 126.84C270.623 127.159 270.824 127.542 270.951 127.988C271.088 128.426 271.156 128.909 271.156 129.438C271.156 129.975 271.102 130.477 270.992 130.941C270.892 131.406 270.732 131.807 270.514 132.145C270.286 132.482 269.99 132.746 269.625 132.938C269.27 133.129 268.837 133.225 268.326 133.225C267.497 133.225 266.813 132.988 266.275 132.514C265.747 132.04 265.437 131.37 265.346 130.504H261.6C261.627 131.424 261.832 132.245 262.215 132.965C262.607 133.676 263.113 134.277 263.732 134.77C264.352 135.262 265.059 135.635 265.852 135.891C266.654 136.146 267.483 136.273 268.34 136.273C269.47 136.273 270.45 136.096 271.279 135.74C272.109 135.385 272.797 134.902 273.344 134.291C273.891 133.68 274.296 132.974 274.561 132.172C274.825 131.37 274.957 130.522 274.957 129.629C274.957 128.581 274.82 127.642 274.547 126.812C274.273 125.983 273.882 125.281 273.371 124.707C272.852 124.133 272.214 123.695 271.457 123.395C270.71 123.085 269.857 122.93 268.9 122.93C268.226 122.93 267.629 123.016 267.109 123.189C266.59 123.363 266.189 123.531 265.906 123.695L266.385 119.32H274.301V116.094H263.254L262.119 126.197ZM289.846 128.604V116.094H285.99L277.623 129.301L277.773 131.68H286.045V136H289.846V131.68H292.156V128.604H289.846ZM281.355 128.604L285.676 121.863L286.045 121.207V128.604H281.355ZM308.521 128.426V123.668C308.521 122.383 308.371 121.253 308.07 120.277C307.77 119.293 307.341 118.468 306.785 117.803C306.22 117.146 305.536 116.65 304.734 116.312C303.932 115.975 303.03 115.807 302.027 115.807C301.034 115.807 300.136 115.975 299.334 116.312C298.541 116.65 297.867 117.146 297.311 117.803C296.745 118.468 296.312 119.293 296.012 120.277C295.711 121.253 295.561 122.383 295.561 123.668V128.426C295.561 129.711 295.711 130.846 296.012 131.83C296.322 132.805 296.759 133.621 297.324 134.277C297.88 134.943 298.559 135.444 299.361 135.781C300.163 136.118 301.061 136.287 302.055 136.287C303.057 136.287 303.96 136.118 304.762 135.781C305.564 135.444 306.243 134.943 306.799 134.277C307.355 133.621 307.779 132.805 308.07 131.83C308.371 130.846 308.521 129.711 308.521 128.426ZM299.389 126.785C299.389 126.503 299.389 126.288 299.389 126.143C299.389 125.997 299.389 125.705 299.389 125.268V123.066C299.389 122.328 299.443 121.69 299.553 121.152C299.671 120.615 299.849 120.177 300.086 119.84C300.305 119.521 300.574 119.284 300.893 119.129C301.221 118.965 301.599 118.883 302.027 118.883C302.41 118.883 302.752 118.947 303.053 119.074C303.363 119.193 303.622 119.38 303.832 119.635C304.105 119.954 304.311 120.382 304.447 120.92C304.593 121.449 304.675 122.087 304.693 122.834L299.389 126.785ZM304.693 129C304.693 129.738 304.634 130.381 304.516 130.928C304.406 131.465 304.238 131.908 304.01 132.254C303.791 132.582 303.518 132.828 303.189 132.992C302.861 133.147 302.483 133.225 302.055 133.225C301.59 133.225 301.189 133.133 300.852 132.951C300.514 132.769 300.236 132.491 300.018 132.117C299.826 131.807 299.676 131.42 299.566 130.955C299.466 130.49 299.407 129.957 299.389 129.355L304.693 125.418C304.693 125.682 304.693 125.887 304.693 126.033C304.693 126.17 304.693 126.389 304.693 126.689V129ZM321.688 136V116.094H321.482L312.814 119.225V122.533L317.846 120.729V136H321.688Z" fill="white"/>
<path d="M342.209 136V132.951H333.473L337.219 128.986C337.866 128.321 338.454 127.688 338.982 127.086C339.511 126.475 339.967 125.878 340.35 125.295C340.723 124.712 341.01 124.124 341.211 123.531C341.421 122.93 341.525 122.301 341.525 121.645C341.525 120.779 341.389 119.99 341.115 119.279C340.842 118.559 340.445 117.944 339.926 117.434C339.397 116.923 338.741 116.527 337.957 116.244C337.182 115.962 336.289 115.82 335.277 115.82C334.22 115.82 333.254 115.993 332.379 116.34C331.513 116.677 330.775 117.142 330.164 117.734C329.544 118.327 329.066 119.02 328.729 119.812C328.391 120.596 328.223 121.43 328.223 122.314H332.037C332.037 121.777 332.105 121.298 332.242 120.879C332.379 120.46 332.579 120.109 332.844 119.826C333.099 119.553 333.418 119.348 333.801 119.211C334.193 119.065 334.644 118.992 335.154 118.992C335.546 118.992 335.902 119.056 336.221 119.184C336.549 119.311 336.831 119.493 337.068 119.73C337.296 119.977 337.474 120.273 337.602 120.619C337.729 120.965 337.793 121.362 337.793 121.809C337.793 122.109 337.743 122.419 337.643 122.738C337.551 123.057 337.401 123.399 337.191 123.764C336.973 124.137 336.69 124.548 336.344 124.994C335.997 125.441 335.574 125.938 335.072 126.484L328.633 133.402V136H342.209Z" fill="#F92727"/>
<path d="M320.029 157.15V144.64H316.174L307.807 157.847L307.957 160.226H316.229V164.546H320.029V160.226H322.34V157.15H320.029ZM311.539 157.15L315.859 150.41L316.229 149.753V157.15H311.539Z" fill="white"/>
<path d="M286.238 220.62V200.713H286.033L277.365 203.844V207.153L282.396 205.348V220.62H286.238ZM304.846 213.223V200.713H300.99L292.623 213.92L292.773 216.299H301.045V220.62H304.846V216.299H307.156V213.223H304.846ZM296.355 213.223L300.676 206.483L301.045 205.827V213.223H296.355Z" fill="white"/>
<path d="M270.238 277.712V257.806H270.033L261.365 260.937V264.245L266.396 262.441V277.712H270.238ZM290.705 270.138V265.38C290.705 264.095 290.555 262.965 290.254 261.99C289.953 261.005 289.525 260.18 288.969 259.515C288.404 258.859 287.72 258.362 286.918 258.025C286.116 257.687 285.214 257.519 284.211 257.519C283.217 257.519 282.32 257.687 281.518 258.025C280.725 258.362 280.05 258.859 279.494 259.515C278.929 260.18 278.496 261.005 278.195 261.99C277.895 262.965 277.744 264.095 277.744 265.38V270.138C277.744 271.423 277.895 272.558 278.195 273.542C278.505 274.517 278.943 275.333 279.508 275.99C280.064 276.655 280.743 277.156 281.545 277.493C282.347 277.831 283.245 277.999 284.238 277.999C285.241 277.999 286.143 277.831 286.945 277.493C287.747 277.156 288.426 276.655 288.982 275.99C289.538 275.333 289.962 274.517 290.254 273.542C290.555 272.558 290.705 271.423 290.705 270.138ZM281.572 268.497C281.572 268.215 281.572 268.001 281.572 267.855C281.572 267.709 281.572 267.417 281.572 266.98V264.779C281.572 264.04 281.627 263.402 281.736 262.865C281.855 262.327 282.033 261.889 282.27 261.552C282.488 261.233 282.757 260.996 283.076 260.841C283.404 260.677 283.783 260.595 284.211 260.595C284.594 260.595 284.936 260.659 285.236 260.786C285.546 260.905 285.806 261.092 286.016 261.347C286.289 261.666 286.494 262.094 286.631 262.632C286.777 263.161 286.859 263.799 286.877 264.546L281.572 268.497ZM286.877 270.712C286.877 271.45 286.818 272.093 286.699 272.64C286.59 273.178 286.421 273.62 286.193 273.966C285.975 274.294 285.701 274.54 285.373 274.704C285.045 274.859 284.667 274.937 284.238 274.937C283.773 274.937 283.372 274.846 283.035 274.663C282.698 274.481 282.42 274.203 282.201 273.829C282.01 273.519 281.859 273.132 281.75 272.667C281.65 272.202 281.59 271.669 281.572 271.068L286.877 267.13C286.877 267.394 286.877 267.6 286.877 267.745C286.877 267.882 286.877 268.101 286.877 268.402V270.712Z" fill="white"/>
<path d="M272.029 298.862V286.352H268.174L259.807 299.559L259.957 301.938H268.229V306.259H272.029V301.938H274.34V298.862H272.029ZM263.539 298.862L267.859 292.122L268.229 291.466V298.862H263.539ZM287.055 306.259V286.352H286.85L278.182 289.483V292.792L283.213 290.987V306.259H287.055Z" fill="white"/>
<path d="M262.119 183.29L265.154 184.042C265.3 183.896 265.455 183.759 265.619 183.632C265.783 183.495 265.97 183.377 266.18 183.276C266.389 183.176 266.631 183.094 266.904 183.03C267.178 182.966 267.501 182.934 267.875 182.934C268.431 182.934 268.914 183.021 269.324 183.194C269.734 183.367 270.076 183.613 270.35 183.932C270.623 184.252 270.824 184.634 270.951 185.081C271.088 185.518 271.156 186.002 271.156 186.53C271.156 187.068 271.102 187.569 270.992 188.034C270.892 188.499 270.732 188.9 270.514 189.237C270.286 189.574 269.99 189.839 269.625 190.03C269.27 190.222 268.837 190.317 268.326 190.317C267.497 190.317 266.813 190.08 266.275 189.606C265.747 189.132 265.437 188.462 265.346 187.597H261.6C261.627 188.517 261.832 189.337 262.215 190.057C262.607 190.768 263.113 191.37 263.732 191.862C264.352 192.354 265.059 192.728 265.852 192.983C266.654 193.238 267.483 193.366 268.34 193.366C269.47 193.366 270.45 193.188 271.279 192.833C272.109 192.477 272.797 191.994 273.344 191.384C273.891 190.773 274.296 190.067 274.561 189.265C274.825 188.462 274.957 187.615 274.957 186.722C274.957 185.673 274.82 184.735 274.547 183.905C274.273 183.076 273.882 182.374 273.371 181.8C272.852 181.225 272.214 180.788 271.457 180.487C270.71 180.177 269.857 180.022 268.9 180.022C268.226 180.022 267.629 180.109 267.109 180.282C266.59 180.455 266.189 180.624 265.906 180.788L266.385 176.413H274.301V173.186H263.254L262.119 183.29ZM282.572 181.472V184.425H284.637C285.156 184.425 285.621 184.484 286.031 184.602C286.451 184.721 286.811 184.903 287.111 185.149C287.403 185.395 287.626 185.71 287.781 186.093C287.936 186.475 288.014 186.936 288.014 187.474C288.014 187.902 287.945 188.289 287.809 188.636C287.681 188.982 287.49 189.274 287.234 189.511C286.97 189.775 286.642 189.975 286.25 190.112C285.858 190.249 285.416 190.317 284.924 190.317C284.486 190.317 284.085 190.253 283.721 190.126C283.356 189.989 283.042 189.802 282.777 189.565C282.504 189.337 282.294 189.064 282.148 188.745C282.003 188.417 281.93 188.061 281.93 187.679H278.129C278.129 188.645 278.316 189.483 278.689 190.194C279.072 190.905 279.578 191.493 280.207 191.958C280.836 192.432 281.551 192.787 282.354 193.024C283.165 193.252 283.994 193.366 284.842 193.366C285.826 193.366 286.742 193.238 287.59 192.983C288.447 192.719 289.185 192.336 289.805 191.835C290.424 191.343 290.912 190.732 291.268 190.003C291.623 189.274 291.801 188.444 291.801 187.515C291.801 186.986 291.737 186.485 291.609 186.011C291.482 185.537 291.286 185.099 291.021 184.698C290.757 184.306 290.42 183.955 290.01 183.645C289.609 183.335 289.13 183.08 288.574 182.88C289.048 182.652 289.467 182.383 289.832 182.073C290.197 181.754 290.502 181.408 290.748 181.034C290.994 180.66 291.181 180.268 291.309 179.858C291.436 179.439 291.5 179.015 291.5 178.587C291.5 177.657 291.336 176.841 291.008 176.14C290.689 175.429 290.238 174.832 289.654 174.349C289.071 173.875 288.369 173.519 287.549 173.282C286.729 173.036 285.826 172.913 284.842 172.913C283.93 172.913 283.078 173.045 282.285 173.309C281.501 173.574 280.818 173.943 280.234 174.417C279.651 174.9 279.191 175.474 278.854 176.14C278.525 176.805 278.361 177.543 278.361 178.354H282.162C282.162 177.99 282.235 177.662 282.381 177.37C282.527 177.078 282.727 176.828 282.982 176.618C283.229 176.418 283.516 176.263 283.844 176.153C284.181 176.044 284.541 175.989 284.924 175.989C285.389 175.989 285.794 176.053 286.141 176.181C286.496 176.308 286.788 176.486 287.016 176.714C287.243 176.951 287.412 177.233 287.521 177.561C287.64 177.88 287.699 178.236 287.699 178.628C287.699 179.029 287.64 179.403 287.521 179.749C287.412 180.086 287.243 180.373 287.016 180.61C286.77 180.884 286.446 181.098 286.045 181.253C285.653 181.399 285.184 181.472 284.637 181.472H282.572ZM298.172 190.071H297.912V193.257H298.199C299.958 193.257 301.471 192.988 302.738 192.45C304.005 191.903 305.049 191.142 305.869 190.167C306.689 189.201 307.296 188.052 307.688 186.722C308.079 185.391 308.275 183.932 308.275 182.347V181.034C308.275 179.849 308.12 178.76 307.811 177.766C307.51 176.773 307.072 175.916 306.498 175.196C305.915 174.476 305.208 173.916 304.379 173.515C303.549 173.113 302.615 172.913 301.576 172.913C300.555 172.913 299.635 173.1 298.814 173.474C298.003 173.838 297.311 174.339 296.736 174.977C296.162 175.615 295.72 176.363 295.41 177.22C295.109 178.067 294.959 178.974 294.959 179.94C294.959 180.879 295.082 181.759 295.328 182.579C295.583 183.39 295.957 184.097 296.449 184.698C296.932 185.3 297.534 185.774 298.254 186.12C298.974 186.466 299.808 186.64 300.756 186.64C301.202 186.64 301.613 186.603 301.986 186.53C302.36 186.448 302.697 186.339 302.998 186.202C303.281 186.084 303.54 185.942 303.777 185.778C304.014 185.614 304.229 185.436 304.42 185.245V185.327C304.329 186.056 304.142 186.717 303.859 187.309C303.586 187.893 303.203 188.385 302.711 188.786C302.201 189.205 301.572 189.524 300.824 189.743C300.077 189.962 299.193 190.071 298.172 190.071ZM301.658 183.7C301.166 183.7 300.738 183.6 300.373 183.399C300.008 183.19 299.708 182.912 299.471 182.565C299.225 182.219 299.042 181.813 298.924 181.349C298.805 180.884 298.746 180.396 298.746 179.886C298.746 179.375 298.81 178.888 298.938 178.423C299.065 177.949 299.247 177.53 299.484 177.165C299.721 176.809 300.013 176.527 300.359 176.317C300.715 176.099 301.116 175.989 301.562 175.989C301.973 175.989 302.355 176.08 302.711 176.263C303.066 176.445 303.376 176.718 303.641 177.083C303.905 177.447 304.11 177.903 304.256 178.45C304.411 178.997 304.488 179.635 304.488 180.364V181.718C304.379 182 304.233 182.265 304.051 182.511C303.878 182.748 303.673 182.953 303.436 183.126C303.189 183.308 302.916 183.449 302.615 183.55C302.324 183.65 302.005 183.7 301.658 183.7Z" fill="white"/>
<path d="M325.379 175.306V173.186H311.393V176.29H321.387L313.621 193.093H317.627L325.379 175.306Z" fill="#F92727"/>
<path d="M262.119 239.363L265.154 240.115C265.3 239.969 265.455 239.833 265.619 239.705C265.783 239.568 265.97 239.45 266.18 239.349C266.389 239.249 266.631 239.167 266.904 239.103C267.178 239.04 267.501 239.008 267.875 239.008C268.431 239.008 268.914 239.094 269.324 239.267C269.734 239.441 270.076 239.687 270.35 240.006C270.623 240.325 270.824 240.708 270.951 241.154C271.088 241.592 271.156 242.075 271.156 242.603C271.156 243.141 271.102 243.642 270.992 244.107C270.892 244.572 270.732 244.973 270.514 245.31C270.286 245.648 269.99 245.912 269.625 246.103C269.27 246.295 268.837 246.391 268.326 246.391C267.497 246.391 266.813 246.154 266.275 245.68C265.747 245.206 265.437 244.536 265.346 243.67H261.6C261.627 244.59 261.832 245.411 262.215 246.131C262.607 246.842 263.113 247.443 263.732 247.935C264.352 248.428 265.059 248.801 265.852 249.057C266.654 249.312 267.483 249.439 268.34 249.439C269.47 249.439 270.45 249.262 271.279 248.906C272.109 248.551 272.797 248.068 273.344 247.457C273.891 246.846 274.296 246.14 274.561 245.338C274.825 244.536 274.957 243.688 274.957 242.795C274.957 241.747 274.82 240.808 274.547 239.978C274.273 239.149 273.882 238.447 273.371 237.873C272.852 237.299 272.214 236.861 271.457 236.56C270.71 236.251 269.857 236.096 268.9 236.096C268.226 236.096 267.629 236.182 267.109 236.355C266.59 236.529 266.189 236.697 265.906 236.861L266.385 232.486H274.301V229.26H263.254L262.119 239.363ZM288.055 249.166V229.26H287.85L279.182 232.391V235.699L284.213 233.894V249.166H288.055Z" fill="white"/>
<path d="M295.752 239.363L298.787 240.115C298.933 239.969 299.088 239.833 299.252 239.705C299.416 239.568 299.603 239.45 299.812 239.349C300.022 239.249 300.264 239.167 300.537 239.103C300.811 239.04 301.134 239.008 301.508 239.008C302.064 239.008 302.547 239.094 302.957 239.267C303.367 239.441 303.709 239.687 303.982 240.006C304.256 240.325 304.456 240.708 304.584 241.154C304.721 241.592 304.789 242.075 304.789 242.603C304.789 243.141 304.734 243.642 304.625 244.107C304.525 244.572 304.365 244.973 304.146 245.31C303.919 245.648 303.622 245.912 303.258 246.103C302.902 246.295 302.469 246.391 301.959 246.391C301.13 246.391 300.446 246.154 299.908 245.68C299.38 245.206 299.07 244.536 298.979 243.67H295.232C295.26 244.59 295.465 245.411 295.848 246.131C296.24 246.842 296.745 247.443 297.365 247.935C297.985 248.428 298.691 248.801 299.484 249.057C300.286 249.312 301.116 249.439 301.973 249.439C303.103 249.439 304.083 249.262 304.912 248.906C305.742 248.551 306.43 248.068 306.977 247.457C307.523 246.846 307.929 246.14 308.193 245.338C308.458 244.536 308.59 243.688 308.59 242.795C308.59 241.747 308.453 240.808 308.18 239.978C307.906 239.149 307.514 238.447 307.004 237.873C306.484 237.299 305.846 236.861 305.09 236.56C304.342 236.251 303.49 236.096 302.533 236.096C301.859 236.096 301.262 236.182 300.742 236.355C300.223 236.529 299.822 236.697 299.539 236.861L300.018 232.486H307.934V229.26H296.887L295.752 239.363Z" fill="#F92727"/>
<line x1="255" y1="311.941" x2="293" y2="311.941" stroke="#E2DEDE" stroke-width="2" stroke-linecap="round"/>
<line x1="255" y1="315" x2="293" y2="315" stroke="#E2DEDE" stroke-width="2" stroke-linecap="round"/>
<line x1="255" y1="282.376" x2="293" y2="282.376" stroke="#E2DEDE" stroke-width="2" stroke-linecap="round"/>
<line x1="255" y1="224.263" x2="310" y2="224.263" stroke="#E2DEDE" stroke-width="2" stroke-linecap="round"/>
<line x1="255" y1="168.19" x2="327" y2="168.19" stroke="#E2DEDE" stroke-width="2" stroke-linecap="round"/>
<path d="M146.777 60V40.0938H152.902C154.652 40.0938 156.215 40.4902 157.592 41.2832C158.977 42.0671 160.057 43.1882 160.832 44.6465C161.607 46.0957 161.994 47.7454 161.994 49.5957V50.5117C161.994 52.362 161.611 54.0072 160.846 55.4473C160.089 56.8874 159.018 58.0039 157.633 58.7969C156.247 59.5898 154.684 59.9909 152.943 60H146.777ZM150.879 43.416V56.7051H152.861C154.465 56.7051 155.691 56.181 156.539 55.1328C157.387 54.0846 157.82 52.5853 157.838 50.6348V49.582C157.838 47.5586 157.419 46.0273 156.58 44.9883C155.742 43.9401 154.516 43.416 152.902 43.416H150.879ZM168.898 60H164.934V45.207H168.898V60ZM164.701 41.3789C164.701 40.7865 164.897 40.2988 165.289 39.916C165.69 39.5332 166.232 39.3418 166.916 39.3418C167.59 39.3418 168.128 39.5332 168.529 39.916C168.93 40.2988 169.131 40.7865 169.131 41.3789C169.131 41.9805 168.926 42.4727 168.516 42.8555C168.115 43.2383 167.581 43.4297 166.916 43.4297C166.251 43.4297 165.713 43.2383 165.303 42.8555C164.902 42.4727 164.701 41.9805 164.701 41.3789ZM177.703 55.1738L180.451 45.207H184.58L179.59 60H175.816L170.826 45.207H174.955L177.703 55.1738ZM190.5 60H186.535V45.207H190.5V60ZM186.303 41.3789C186.303 40.7865 186.499 40.2988 186.891 39.916C187.292 39.5332 187.834 39.3418 188.518 39.3418C189.192 39.3418 189.73 39.5332 190.131 39.916C190.532 40.2988 190.732 40.7865 190.732 41.3789C190.732 41.9805 190.527 42.4727 190.117 42.8555C189.716 43.2383 189.183 43.4297 188.518 43.4297C187.852 43.4297 187.314 43.2383 186.904 42.8555C186.503 42.4727 186.303 41.9805 186.303 41.3789ZM201.779 55.9121C201.779 55.429 201.538 55.0508 201.055 54.7773C200.581 54.4948 199.815 54.2441 198.758 54.0254C195.24 53.2871 193.48 51.7923 193.48 49.541C193.48 48.2285 194.023 47.1348 195.107 46.2598C196.201 45.3757 197.628 44.9336 199.387 44.9336C201.264 44.9336 202.764 45.3757 203.885 46.2598C205.015 47.1439 205.58 48.2923 205.58 49.7051H201.629C201.629 49.14 201.447 48.6751 201.082 48.3105C200.717 47.9368 200.148 47.75 199.373 47.75C198.708 47.75 198.193 47.9004 197.828 48.2012C197.464 48.502 197.281 48.8848 197.281 49.3496C197.281 49.7871 197.486 50.1426 197.896 50.416C198.316 50.6803 199.018 50.9128 200.002 51.1133C200.986 51.3047 201.816 51.5234 202.49 51.7695C204.577 52.5352 205.621 53.8613 205.621 55.748C205.621 57.097 205.042 58.1908 203.885 59.0293C202.727 59.8587 201.232 60.2734 199.4 60.2734C198.161 60.2734 197.058 60.0547 196.092 59.6172C195.135 59.1706 194.383 58.5645 193.836 57.7988C193.289 57.0241 193.016 56.1901 193.016 55.2969H196.762C196.798 55.9987 197.058 56.5365 197.541 56.9102C198.024 57.2839 198.671 57.4707 199.482 57.4707C200.239 57.4707 200.809 57.3294 201.191 57.0469C201.583 56.7552 201.779 56.377 201.779 55.9121ZM212.348 60H208.383V45.207H212.348V60ZM208.15 41.3789C208.15 40.7865 208.346 40.2988 208.738 39.916C209.139 39.5332 209.682 39.3418 210.365 39.3418C211.04 39.3418 211.577 39.5332 211.979 39.916C212.38 40.2988 212.58 40.7865 212.58 41.3789C212.58 41.9805 212.375 42.4727 211.965 42.8555C211.564 43.2383 211.031 43.4297 210.365 43.4297C209.7 43.4297 209.162 43.2383 208.752 42.8555C208.351 42.4727 208.15 41.9805 208.15 41.3789ZM228.945 52.7402C228.945 55.11 228.439 56.9603 227.428 58.291C226.416 59.6126 225.003 60.2734 223.189 60.2734C221.585 60.2734 220.305 59.6582 219.348 58.4277L219.17 60H215.615V39H219.566V46.5332C220.478 45.4668 221.676 44.9336 223.162 44.9336C224.967 44.9336 226.38 45.599 227.4 46.9297C228.43 48.2513 228.945 50.1152 228.945 52.5215V52.7402ZM224.994 52.4531C224.994 50.9583 224.757 49.8691 224.283 49.1855C223.809 48.4928 223.103 48.1465 222.164 48.1465C220.906 48.1465 220.04 48.6615 219.566 49.6914V55.5293C220.049 56.5684 220.924 57.0879 222.191 57.0879C223.467 57.0879 224.306 56.459 224.707 55.2012C224.898 54.5996 224.994 53.6836 224.994 52.4531ZM235.562 60H231.598V45.207H235.562V60ZM231.365 41.3789C231.365 40.7865 231.561 40.2988 231.953 39.916C232.354 39.5332 232.896 39.3418 233.58 39.3418C234.255 39.3418 234.792 39.5332 235.193 39.916C235.594 40.2988 235.795 40.7865 235.795 41.3789C235.795 41.9805 235.59 42.4727 235.18 42.8555C234.779 43.2383 234.245 43.4297 233.58 43.4297C232.915 43.4297 232.377 43.2383 231.967 42.8555C231.566 42.4727 231.365 41.9805 231.365 41.3789ZM243 60H239.035V39H243V60ZM250.438 60H246.473V45.207H250.438V60ZM246.24 41.3789C246.24 40.7865 246.436 40.2988 246.828 39.916C247.229 39.5332 247.771 39.3418 248.455 39.3418C249.13 39.3418 249.667 39.5332 250.068 39.916C250.469 40.2988 250.67 40.7865 250.67 41.3789C250.67 41.9805 250.465 42.4727 250.055 42.8555C249.654 43.2383 249.12 43.4297 248.455 43.4297C247.79 43.4297 247.252 43.2383 246.842 42.8555C246.441 42.4727 246.24 41.9805 246.24 41.3789ZM258.436 41.5703V45.207H260.965V48.1055H258.436V55.4883C258.436 56.0352 258.54 56.4271 258.75 56.6641C258.96 56.901 259.361 57.0195 259.953 57.0195C260.391 57.0195 260.778 56.9876 261.115 56.9238V59.918C260.34 60.1549 259.543 60.2734 258.723 60.2734C255.952 60.2734 254.539 58.8743 254.484 56.0762V48.1055H252.324V45.207H254.484V41.5703H258.436ZM268.689 54.4082L271.424 45.207H275.662L269.715 62.2969L269.387 63.0762C268.503 65.0085 267.044 65.9746 265.012 65.9746C264.438 65.9746 263.854 65.888 263.262 65.7148V62.7207L263.863 62.7344C264.611 62.7344 265.167 62.6204 265.531 62.3926C265.905 62.1647 266.197 61.7865 266.406 61.2578L266.871 60.041L261.689 45.207H265.941L268.689 54.4082ZM283.578 52.4668C283.578 50.9993 283.861 49.6914 284.426 48.543C284.991 47.3945 285.802 46.5059 286.859 45.877C287.926 45.248 289.161 44.9336 290.564 44.9336C292.561 44.9336 294.188 45.5443 295.445 46.7656C296.712 47.987 297.419 49.6458 297.564 51.7422L297.592 52.7539C297.592 55.0234 296.958 56.8464 295.691 58.2227C294.424 59.5898 292.725 60.2734 290.592 60.2734C288.459 60.2734 286.755 59.5898 285.479 58.2227C284.212 56.8555 283.578 54.9961 283.578 52.6445V52.4668ZM287.529 52.7539C287.529 54.1576 287.794 55.2331 288.322 55.9805C288.851 56.7188 289.607 57.0879 290.592 57.0879C291.549 57.0879 292.296 56.7233 292.834 55.9941C293.372 55.2559 293.641 54.0801 293.641 52.4668C293.641 51.0905 293.372 50.0241 292.834 49.2676C292.296 48.5111 291.54 48.1328 290.564 48.1328C289.598 48.1328 288.851 48.5111 288.322 49.2676C287.794 50.015 287.529 51.1771 287.529 52.7539ZM301.105 60V48.1055H298.904V45.207H301.105V43.9492C301.105 42.2904 301.579 41.0052 302.527 40.0938C303.484 39.1732 304.82 38.7129 306.533 38.7129C307.08 38.7129 307.75 38.804 308.543 38.9863L308.502 42.0488C308.174 41.9668 307.773 41.9258 307.299 41.9258C305.813 41.9258 305.07 42.623 305.07 44.0176V45.207H308.01V48.1055H305.07V60H301.105ZM317.457 50.2109L318.605 40.0938H329.762V43.3887H321.846L321.354 47.668C322.292 47.1667 323.29 46.916 324.348 46.916C326.243 46.916 327.729 47.5039 328.805 48.6797C329.88 49.8555 330.418 51.5007 330.418 53.6152C330.418 54.9004 330.145 56.0534 329.598 57.0742C329.06 58.0859 328.285 58.8743 327.273 59.4395C326.262 59.9954 325.068 60.2734 323.691 60.2734C322.488 60.2734 321.372 60.0319 320.342 59.5488C319.312 59.0566 318.496 58.3685 317.895 57.4844C317.302 56.6003 316.988 55.5931 316.951 54.4629H320.861C320.943 55.2923 321.23 55.9395 321.723 56.4043C322.224 56.86 322.876 57.0879 323.678 57.0879C324.571 57.0879 325.259 56.7689 325.742 56.1309C326.225 55.4837 326.467 54.5723 326.467 53.3965C326.467 52.2663 326.189 51.4004 325.633 50.7988C325.077 50.1973 324.288 49.8965 323.268 49.8965C322.329 49.8965 321.568 50.1426 320.984 50.6348L320.602 50.9902L317.457 50.2109ZM344.637 52.5078H346.893V55.6934H344.637V60H340.686V55.6934H332.523L332.346 53.2051L340.645 40.0938H344.637V52.5078ZM336.283 52.5078H340.686V45.4805L340.426 45.9316L336.283 52.5078ZM362.424 51.7695C362.424 54.5221 361.854 56.6276 360.715 58.0859C359.576 59.5443 357.908 60.2734 355.711 60.2734C353.542 60.2734 351.883 59.5579 350.734 58.127C349.586 56.696 348.998 54.6452 348.971 51.9746V48.3105C348.971 45.5306 349.545 43.4206 350.693 41.9805C351.851 40.5404 353.514 39.8203 355.684 39.8203C357.853 39.8203 359.512 40.5358 360.66 41.9668C361.809 43.3887 362.396 45.4349 362.424 48.1055V51.7695ZM358.473 47.75C358.473 46.1003 358.245 44.9017 357.789 44.1543C357.342 43.3978 356.641 43.0195 355.684 43.0195C354.754 43.0195 354.066 43.3796 353.619 44.0996C353.182 44.8105 352.949 45.9271 352.922 47.4492V52.2891C352.922 53.9115 353.141 55.1191 353.578 55.9121C354.025 56.696 354.736 57.0879 355.711 57.0879C356.677 57.0879 357.374 56.7096 357.803 55.9531C358.231 55.1966 358.454 54.0391 358.473 52.4805V47.75ZM374.701 60H370.75V44.7695L366.033 46.2324V43.0195L374.277 40.0664H374.701V60ZM394.826 60H381.182V57.293L387.621 50.4297C388.505 49.4635 389.157 48.6204 389.576 47.9004C390.005 47.1803 390.219 46.4967 390.219 45.8496C390.219 44.9655 389.995 44.2728 389.549 43.7715C389.102 43.2611 388.464 43.0059 387.635 43.0059C386.742 43.0059 386.035 43.3158 385.516 43.9355C385.005 44.5462 384.75 45.3529 384.75 46.3555H380.785C380.785 45.1432 381.072 44.0358 381.646 43.0332C382.23 42.0306 383.05 41.2467 384.107 40.6816C385.165 40.1074 386.363 39.8203 387.703 39.8203C389.754 39.8203 391.344 40.3125 392.475 41.2969C393.614 42.2812 394.184 43.6712 394.184 45.4668C394.184 46.4512 393.928 47.4538 393.418 48.4746C392.908 49.4954 392.033 50.6849 390.793 52.043L386.268 56.8145H394.826V60ZM417.727 52.7402C417.727 55.11 417.221 56.9603 416.209 58.291C415.197 59.6126 413.785 60.2734 411.971 60.2734C410.367 60.2734 409.086 59.6582 408.129 58.4277L407.951 60H404.396V39H408.348V46.5332C409.259 45.4668 410.458 44.9336 411.943 44.9336C413.748 44.9336 415.161 45.599 416.182 46.9297C417.212 48.2513 417.727 50.1152 417.727 52.5215V52.7402ZM413.775 52.4531C413.775 50.9583 413.538 49.8691 413.064 49.1855C412.59 48.4928 411.884 48.1465 410.945 48.1465C409.688 48.1465 408.822 48.6615 408.348 49.6914V55.5293C408.831 56.5684 409.706 57.0879 410.973 57.0879C412.249 57.0879 413.087 56.459 413.488 55.2012C413.68 54.5996 413.775 53.6836 413.775 52.4531ZM425.533 54.4082L428.268 45.207H432.506L426.559 62.2969L426.23 63.0762C425.346 65.0085 423.888 65.9746 421.855 65.9746C421.281 65.9746 420.698 65.888 420.105 65.7148V62.7207L420.707 62.7344C421.454 62.7344 422.01 62.6204 422.375 62.3926C422.749 62.1647 423.04 61.7865 423.25 61.2578L423.715 60.041L418.533 45.207H422.785L425.533 54.4082ZM454.408 42.3086L446.711 60H442.541L450.252 43.293H440.354V40.0938H454.408V42.3086Z" fill="white"/>
<path d="M333.4 154.878C333.151 155.209 333.219 155.679 333.55 155.928L338.95 159.978C339.281 160.226 339.751 160.159 340 159.828C340.248 159.496 340.181 159.026 339.85 158.778L335.05 155.178L338.65 150.378C338.898 150.046 338.831 149.576 338.5 149.328C338.169 149.079 337.698 149.146 337.45 149.478L333.4 154.878ZM348.577 135.574C351.337 135.291 352.847 136.181 353.491 137.441C354.171 138.771 354.057 140.819 352.875 143.162C350.531 147.806 344.196 153.113 333.894 154.585L334.106 156.07C344.804 154.542 351.611 148.995 354.214 143.838C355.504 141.28 355.814 138.69 354.827 136.758C353.804 134.756 351.555 133.761 348.424 134.082L348.577 135.574Z" fill="#4169F5"/>
<path d="M320.4 208.935C320.151 209.266 320.219 209.736 320.55 209.985L325.95 214.035C326.281 214.283 326.751 214.216 327 213.885C327.248 213.553 327.181 213.083 326.85 212.835L322.05 209.235L325.65 204.435C325.898 204.103 325.831 203.633 325.5 203.385C325.169 203.136 324.698 203.203 324.45 203.535L320.4 208.935ZM335.576 185.631C336.934 185.491 337.982 185.703 338.764 186.127C339.54 186.548 340.109 187.208 340.466 188.069C341.194 189.821 341.046 192.418 339.852 195.267C337.481 200.926 331.131 207.18 320.894 208.642L321.106 210.127C331.869 208.589 338.661 201.989 341.236 195.847C342.515 192.795 342.791 189.754 341.852 187.494C341.376 186.349 340.587 185.41 339.479 184.808C338.376 184.21 337.011 183.976 335.424 184.138L335.576 185.631Z" fill="#4169F5"/>
<path d="M300.9 266.05C300.651 266.381 300.719 266.851 301.05 267.1L306.45 271.15C306.781 271.398 307.251 271.331 307.5 271C307.748 270.669 307.681 270.198 307.35 269.95L302.55 266.35L306.15 261.55C306.398 261.219 306.331 260.748 306 260.5C305.668 260.251 305.198 260.319 304.95 260.65L300.9 266.05ZM315.076 241.746C316.427 241.608 317.489 241.831 318.3 242.282C319.11 242.731 319.723 243.437 320.129 244.356C320.952 246.219 320.911 248.95 319.839 251.917C317.706 257.817 311.609 264.298 301.394 265.758L301.606 267.242C312.39 265.702 318.936 258.829 321.249 252.427C322.4 249.243 322.533 246.087 321.501 243.75C320.98 242.57 320.158 241.598 319.029 240.97C317.901 240.344 316.519 240.09 314.923 240.254L315.076 241.746Z" fill="#4169F5"/>
<path d="M348.103 218.49L348.164 219.483C348.832 218.704 349.746 218.314 350.906 218.314C352.178 218.314 353.048 218.801 353.517 219.773C354.208 218.801 355.181 218.314 356.435 218.314C357.483 218.314 358.263 218.604 358.772 219.185C359.288 219.765 359.552 220.62 359.563 221.751V228H357.428V221.812C357.428 221.209 357.296 220.767 357.032 220.485C356.769 220.204 356.332 220.063 355.723 220.063C355.236 220.063 354.838 220.195 354.527 220.459C354.223 220.717 354.009 221.057 353.886 221.479L353.895 228H351.759V221.742C351.729 220.623 351.158 220.063 350.045 220.063C349.189 220.063 348.583 220.412 348.226 221.109V228H346.09V218.49H348.103ZM367.518 227.068C366.891 227.807 366 228.176 364.846 228.176C363.814 228.176 363.032 227.874 362.499 227.271C361.972 226.667 361.708 225.794 361.708 224.651V218.49H363.844V224.625C363.844 225.832 364.345 226.436 365.347 226.436C366.384 226.436 367.084 226.063 367.447 225.319V218.49H369.583V228H367.57L367.518 227.068ZM374.03 228H371.895V214.5H374.03V228ZM379.04 216.179V218.49H380.719V220.072H379.04V225.381C379.04 225.744 379.11 226.008 379.251 226.172C379.397 226.33 379.655 226.409 380.024 226.409C380.271 226.409 380.52 226.38 380.771 226.321V227.974C380.285 228.108 379.816 228.176 379.365 228.176C377.725 228.176 376.904 227.271 376.904 225.46V220.072H375.34V218.49H376.904V216.179H379.04ZM384.63 228H382.494V218.49H384.63V228ZM382.362 216.021C382.362 215.692 382.465 215.42 382.67 215.203C382.881 214.986 383.18 214.878 383.566 214.878C383.953 214.878 384.252 214.986 384.463 215.203C384.674 215.42 384.779 215.692 384.779 216.021C384.779 216.343 384.674 216.612 384.463 216.829C384.252 217.04 383.953 217.146 383.566 217.146C383.18 217.146 382.881 217.04 382.67 216.829C382.465 216.612 382.362 216.343 382.362 216.021ZM395.291 223.342C395.291 224.812 394.957 225.987 394.289 226.866C393.621 227.739 392.725 228.176 391.6 228.176C390.557 228.176 389.722 227.833 389.095 227.147V231.656H386.959V218.49H388.928L389.016 219.457C389.643 218.695 390.495 218.314 391.573 218.314C392.733 218.314 393.642 218.748 394.298 219.615C394.96 220.477 395.291 221.675 395.291 223.21V223.342ZM393.164 223.157C393.164 222.208 392.974 221.455 392.593 220.898C392.218 220.342 391.679 220.063 390.976 220.063C390.103 220.063 389.476 220.424 389.095 221.145V225.363C389.481 226.102 390.114 226.471 390.993 226.471C391.673 226.471 392.203 226.198 392.584 225.653C392.971 225.103 393.164 224.271 393.164 223.157ZM399.378 228H397.242V214.5H399.378V228ZM405.038 224.941L406.972 218.49H409.248L405.469 229.441C404.889 231.041 403.904 231.841 402.516 231.841C402.205 231.841 401.862 231.788 401.487 231.683V230.03L401.892 230.057C402.431 230.057 402.835 229.957 403.104 229.758C403.38 229.564 403.597 229.236 403.755 228.773L404.062 227.956L400.723 218.49H403.025L405.038 224.941ZM423.311 223.342C423.311 224.818 422.979 225.993 422.317 226.866C421.661 227.739 420.756 228.176 419.602 228.176C418.488 228.176 417.621 227.774 417 226.972L416.895 228H414.961V214.5H417.097V219.404C417.712 218.678 418.541 218.314 419.584 218.314C420.744 218.314 421.655 218.745 422.317 219.606C422.979 220.468 423.311 221.672 423.311 223.219V223.342ZM421.175 223.157C421.175 222.126 420.993 221.353 420.63 220.837C420.267 220.321 419.739 220.063 419.048 220.063C418.122 220.063 417.472 220.468 417.097 221.276V225.196C417.478 226.022 418.134 226.436 419.065 226.436C419.733 226.436 420.249 226.187 420.612 225.688C420.976 225.19 421.163 224.438 421.175 223.43V223.157ZM428.329 224.941L430.263 218.49H432.539L428.76 229.441C428.18 231.041 427.195 231.841 425.807 231.841C425.496 231.841 425.153 231.788 424.778 231.683V230.03L425.183 230.057C425.722 230.057 426.126 229.957 426.396 229.758C426.671 229.564 426.888 229.236 427.046 228.773L427.354 227.956L424.014 218.49H426.316L428.329 224.941ZM446.725 228H438.12V226.532L442.383 221.883C442.998 221.197 443.435 220.626 443.692 220.169C443.956 219.706 444.088 219.243 444.088 218.78C444.088 218.171 443.915 217.679 443.569 217.304C443.229 216.929 442.77 216.741 442.189 216.741C441.498 216.741 440.962 216.952 440.581 217.374C440.2 217.796 440.01 218.373 440.01 219.105H437.874C437.874 218.326 438.05 217.626 438.401 217.005C438.759 216.378 439.266 215.892 439.922 215.546C440.584 215.2 441.346 215.027 442.207 215.027C443.449 215.027 444.428 215.341 445.143 215.968C445.863 216.589 446.224 217.45 446.224 218.552C446.224 219.19 446.042 219.861 445.679 220.564C445.321 221.262 444.732 222.056 443.912 222.946L440.783 226.295H446.725V228Z" fill="#4169F5"/>
</svg>
